<?xml version="1.0" encoding="UTF-8" standalone="no" ?>
<!DOCTYPE svg PUBLIC "-//W3C//DTD SVG 1.1//EN" "http://www.w3.org/Graphics/SVG/1.1/DTD/svg11.dtd">
<svg xmlns="http://www.w3.org/2000/svg" xmlns:xlink="http://www.w3.org/1999/xlink" version="1.1" width="400" height="600" viewBox="0 0 400 600" xml:space="preserve">
<desc>Created with Fabric.js 5.2.4</desc>
<defs>
</defs>
<rect x="0" y="0" width="100%" height="100%" fill="transparent"></rect>
<g transform="matrix(1 0 0 1 200 300)" id="e1fa46a0-47e2-4a7c-a3a6-9acfee1c37c8"  >
<rect style="stroke: none; stroke-width: 1; stroke-dasharray: none; stroke-linecap: butt; stroke-dashoffset: 0; stroke-linejoin: miter; stroke-miterlimit: 4; fill: rgb(255,255,255); fill-rule: nonzero; opacity: 1; visibility: hidden;" vector-effect="non-scaling-stroke"  x="-200" y="-300" rx="0" ry="0" width="400" height="600" />
</g>
<g transform="matrix(Infinity NaN NaN Infinity 0 0)" id="6f05db8f-da49-4ad2-a1ec-3bc05a651f85"  >
</g>
<g transform="matrix(1.05 0 0 1.13 200 300)" id="XLS"  >
<path style="stroke: rgb(0,0,0); stroke-width: 0; stroke-dasharray: none; stroke-linecap: butt; stroke-dashoffset: 0; stroke-linejoin: miter; stroke-miterlimit: 4; fill: rgb(255,255,255); fill-rule: nonzero; opacity: 1;" vector-effect="non-scaling-stroke"  transform=" translate(-171.96, -203.8)" d="M 236.349632 7.10542736e-15 L 1.68296533 7.10542736e-15 L 1.68296533 234.666667 L 44.349632 234.666667 L 44.349632 192 L 44.349632 169.6 L 44.349632 42.6666667 L 218.642965 42.6666667 L 300.349632 124.373333 L 300.349632 169.6 L 300.349632 192 L 300.349632 234.666667 L 343.016299 234.666667 L 343.016299 106.666667 L 236.349632 7.10542736e-15 L 236.349632 7.10542736e-15 Z M 4.26325641e-14 405.333333 L 4.26325641e-14 277.360521 L 28.8096875 277.360521 L 28.8096875 382.755208 L 83.81 382.755208 L 83.81 405.333333 L 4.26325641e-14 405.333333 Z M 153.17 275.102708 C 173.279583 275.102708 188.692917 281.484792 199.41 294.248958 C 209.705625 306.47125 214.853437 322.185625 214.853437 341.392083 C 214.853437 362.404792 208.772396 379.112604 196.610312 391.515521 C 186.134062 402.232604 171.653958 407.591146 153.17 407.591146 C 133.060417 407.591146 117.647083 401.209062 106.93 388.444896 C 96.634375 376.222604 91.4865625 360.267396 91.4865625 340.579271 C 91.4865625 319.988021 97.5676042 303.490937 109.729687 291.088021 C 120.266146 280.431146 134.74625 275.102708 153.17 275.102708 Z M 153.079687 297.680833 C 142.663646 297.680833 134.625833 302.015833 128.96625 310.685833 C 123.848542 318.512917 121.289687 328.567708 121.289687 340.850208 C 121.289687 355.059375 124.330208 366.0775 130.41125 373.904583 C 136.131042 381.310208 143.717292 385.013021 153.17 385.013021 C 163.525833 385.013021 171.59375 380.647917 177.37375 371.917708 C 182.491458 364.211042 185.050312 354.035833 185.050312 341.392083 C 185.050312 327.483958 182.009792 316.616354 175.92875 308.789271 C 170.208958 301.383646 162.592604 297.680833 153.079687 297.680833 Z M 343.91 333.715521 L 343.91 399.011458 C 336.564583 401.48 331.386667 403.105625 328.37625 403.888333 C 319.043958 406.356875 309.019271 407.591146 298.302187 407.591146 C 277.229271 407.591146 261.18375 402.292812 250.165625 391.696146 C 237.943333 380.015729 231.832187 363.729375 231.832187 342.837083 C 231.832187 318.813958 239.418437 300.69125 254.590937 288.468958 C 265.609062 279.558125 280.480521 275.102708 299.205312 275.102708 C 315.220729 275.102708 330.122292 278.022812 343.91 283.863021 L 334.065937 306.350833 C 327.563437 303.099583 321.87375 300.826719 316.996875 299.53224 C 312.12 298.23776 306.761458 297.590521 300.92125 297.590521 C 286.952917 297.590521 276.657292 302.13625 270.034375 311.227708 C 264.435 318.934375 261.635312 329.079479 261.635312 341.663021 C 261.635312 356.775312 265.849896 368.154687 274.279062 375.801146 C 281.022396 381.942396 289.391354 385.013021 299.385937 385.013021 C 305.226146 385.013021 310.765312 384.019583 316.003437 382.032708 L 316.003437 356.293646 L 293.967187 356.293646 L 293.967187 333.715521 L 343.91 333.715521 Z" stroke-linecap="round" />
</g>
<g transform="matrix(NaN NaN NaN NaN 0 0)"  >
<g style=""   >
</g>
</g>
<g transform="matrix(NaN NaN NaN NaN 0 0)"  >
<g style=""   >
</g>
</g>
</svg>